<?xml version="1.0" encoding="UTF-8"?>
<!DOCTYPE svg PUBLIC "-//W3C//DTD SVG 1.1//EN"
    "http://www.w3.org/Graphics/SVG/1.1/DTD/svg11.dtd"><svg xmlns="http://www.w3.org/2000/svg" height="2800.0000" stroke-opacity="1" viewBox="0 0 800 2800" font-size="1" width="800.0000" xmlns:xlink="http://www.w3.org/1999/xlink" stroke="rgb(0,0,0)" version="1.1"><defs></defs><g stroke-linejoin="miter" stroke-opacity="1.0" fill-opacity="1.0" stroke="rgb(0,0,0)" stroke-width="5.986651818838305" fill="rgb(0,128,0)" stroke-linecap="butt" stroke-miterlimit="10.0"><path d="M 133.3333,133.3333 l -0.0000,-133.3333 h -133.3333 l -0.0000,133.3333 Z"/></g><g stroke-linejoin="miter" stroke-opacity="1.0" fill-opacity="1.0" font-size="66.66666666666666px" stroke="rgb(0,0,0)" stroke-width="5.986651818838305" fill="rgb(255,255,255)" stroke-linecap="butt" stroke-miterlimit="10.0"><text dominant-baseline="middle" transform="matrix(1.0000,0.0000,0.0000,1.0000,66.6667,66.6667)" stroke="none" text-anchor="middle">O</text></g><g stroke-linejoin="miter" stroke-opacity="1.0" fill-opacity="1.0" stroke="rgb(0,0,0)" stroke-width="5.986651818838305" fill="rgb(0,128,0)" stroke-linecap="butt" stroke-miterlimit="10.0"><path d="M 133.3333,733.3333 c 0.0000,-36.8190 -29.8477,-66.6667 -66.6667 -66.6667c -36.8190,-0.0000 -66.6667,29.8477 -66.6667 66.6667c -0.0000,36.8190 29.8477,66.6667 66.6667 66.6667c 36.8190,0.0000 66.6667,-29.8477 66.6667 -66.6667Z"/></g><g stroke-linejoin="miter" stroke-opacity="1.0" fill-opacity="1.0" font-size="66.66666666666666px" stroke="rgb(0,0,0)" stroke-width="5.986651818838305" fill="rgb(255,255,255)" stroke-linecap="butt" stroke-miterlimit="10.0"><text dominant-baseline="middle" transform="matrix(1.0000,0.0000,0.0000,1.0000,66.6667,733.3333)" stroke="none" text-anchor="middle">t&quot;3&quot;</text></g><g stroke-linejoin="miter" stroke-opacity="1.0" fill-opacity="1.0" stroke="rgb(0,0,0)" stroke-width="5.986651818838305" fill="rgb(0,128,0)" stroke-linecap="butt" stroke-miterlimit="10.0"><path d="M 800.0000,1466.6667 l -0.0000,-133.3333 h -133.3333 l -0.0000,133.3333 Z"/></g><g stroke-linejoin="miter" stroke-opacity="1.0" fill-opacity="1.0" font-size="66.66666666666666px" stroke="rgb(0,0,0)" stroke-width="5.986651818838305" fill="rgb(255,255,255)" stroke-linecap="butt" stroke-miterlimit="10.0"><text dominant-baseline="middle" transform="matrix(1.0000,0.0000,0.0000,1.0000,733.3333,1400.0000)" stroke="none" text-anchor="middle">p([&quot;2&quot;],[&quot;3&quot;])</text></g><g stroke-linejoin="miter" stroke-opacity="1.0" fill-opacity="1.0" stroke="rgb(0,0,0)" stroke-width="5.986651818838305" fill="rgb(0,128,0)" stroke-linecap="butt" stroke-miterlimit="10.0"><path d="M 133.3333,1466.6667 l -0.0000,-133.3333 h -133.3333 l -0.0000,133.3333 Z"/></g><g stroke-linejoin="miter" stroke-opacity="1.0" fill-opacity="1.0" font-size="66.66666666666666px" stroke="rgb(0,0,0)" stroke-width="5.986651818838305" fill="rgb(255,255,255)" stroke-linecap="butt" stroke-miterlimit="10.0"><text dominant-baseline="middle" transform="matrix(1.0000,0.0000,0.0000,1.0000,66.6667,1400.0000)" stroke="none" text-anchor="middle">p([&quot;1&quot;],[&quot;3&quot;])</text></g><g stroke-linejoin="miter" stroke-opacity="1.0" fill-opacity="1.0" stroke="rgb(0,0,0)" stroke-width="5.986651818838305" fill="rgb(0,128,0)" stroke-linecap="butt" stroke-miterlimit="10.0"><path d="M 800.0000,2066.6667 c 0.0000,-36.8190 -29.8477,-66.6667 -66.6667 -66.6667c -36.8190,-0.0000 -66.6667,29.8477 -66.6667 66.6667c -0.0000,36.8190 29.8477,66.6667 66.6667 66.6667c 36.8190,0.0000 66.6667,-29.8477 66.6667 -66.6667Z"/></g><g stroke-linejoin="miter" stroke-opacity="1.0" fill-opacity="1.0" font-size="66.66666666666666px" stroke="rgb(0,0,0)" stroke-width="5.986651818838305" fill="rgb(255,255,255)" stroke-linecap="butt" stroke-miterlimit="10.0"><text dominant-baseline="middle" transform="matrix(1.0000,0.0000,0.0000,1.0000,733.3333,2066.6667)" stroke="none" text-anchor="middle">t&quot;2&quot;</text></g><g stroke-linejoin="miter" stroke-opacity="1.0" fill-opacity="1.0" stroke="rgb(0,0,0)" stroke-width="5.986651818838305" fill="rgb(0,128,0)" stroke-linecap="butt" stroke-miterlimit="10.0"><path d="M 133.3333,2066.6667 c 0.0000,-36.8190 -29.8477,-66.6667 -66.6667 -66.6667c -36.8190,-0.0000 -66.6667,29.8477 -66.6667 66.6667c -0.0000,36.8190 29.8477,66.6667 66.6667 66.6667c 36.8190,0.0000 66.6667,-29.8477 66.6667 -66.6667Z"/></g><g stroke-linejoin="miter" stroke-opacity="1.0" fill-opacity="1.0" font-size="66.66666666666666px" stroke="rgb(0,0,0)" stroke-width="5.986651818838305" fill="rgb(255,255,255)" stroke-linecap="butt" stroke-miterlimit="10.0"><text dominant-baseline="middle" transform="matrix(1.0000,0.0000,0.0000,1.0000,66.6667,2066.6667)" stroke="none" text-anchor="middle">t&quot;1&quot;</text></g><g stroke-linejoin="miter" stroke-opacity="1.0" fill-opacity="1.0" stroke="rgb(0,0,0)" stroke-width="5.986651818838305" fill="rgb(0,128,0)" stroke-linecap="butt" stroke-miterlimit="10.0"><path d="M 133.3333,2800.0000 l -0.0000,-133.3333 h -133.3333 l -0.0000,133.3333 Z"/></g><g stroke-linejoin="miter" stroke-opacity="1.0" fill-opacity="1.0" font-size="66.66666666666666px" stroke="rgb(0,0,0)" stroke-width="5.986651818838305" fill="rgb(255,255,255)" stroke-linecap="butt" stroke-miterlimit="10.0"><text dominant-baseline="middle" transform="matrix(1.0000,0.0000,0.0000,1.0000,66.6667,2733.3333)" stroke="none" text-anchor="middle">I</text></g></svg>